<svg width="126" height="126" fill="none" xmlns="http://www.w3.org/2000/svg"><path d="M0 6a6 6 0 016-6h114a6 6 0 016 6v105c0 8.284-6.716 15-15 15H15c-8.284 0-15-6.716-15-15V6z" fill="#1A1A1A"/><path d="M10 15a6 6 0 016-6h95a6 6 0 016 6v46c0 16.016-12.984 29-29 29H39c-16.016 0-29-12.984-29-29V15z" fill="#EDEDED"/><mask id="a" maskUnits="userSpaceOnUse" x="10" y="9" width="107" height="81"><path d="M10 15a6 6 0 016-6h95a6 6 0 016 6v46c0 16.016-12.984 29-29 29H39c-16.016 0-29-12.984-29-29V15z" fill="#EDEDED"/></mask><g mask="url(#a)"><path d="M42.5 58.889c-22 0-21-12.445-32.5-12.445V90h110V58.889S106.5 42 87.5 42s-23 16.889-45 16.889z" fill="#FE7C22"/></g><path d="M10 93a2 2 0 012-2h3.49c.655 0 1.292.217 1.811.616a45.068 45.068 0 0012.479 6.777l.823.29c.594.21 1.219.317 1.848.317H95.22c.517 0 1.03-.083 1.52-.247l1.644-.548a36.967 36.967 0 0011.974-6.67 2.309 2.309 0 011.478-.535H115a2 2 0 012 2v17a6 6 0 01-6 6H16a6 6 0 01-6-6V93z" fill="#EDEDED"/></svg>