<svg width="25" height="25" fill="none" xmlns="http://www.w3.org/2000/svg"><path fill-rule="evenodd" clip-rule="evenodd" d="M12.502 0c3.341 0 6.482 1.3 8.84 3.66 4.876 4.875 4.876 12.807 0 17.683A12.541 12.541 0 0112.475 25c-1.777 0-3.566-.376-5.24-1.15-.493-.198-.955-.384-1.286-.384-.382.002-.895.179-1.39.35-1.017.349-2.282.784-3.219-.149-.933-.934-.502-2.196-.156-3.211.171-.5.347-1.017.347-1.408 0-.32-.155-.73-.392-1.32C-1.04 13.023-.033 7.353 3.662 3.66A12.415 12.415 0 0112.502 0zm0 1.745a10.684 10.684 0 00-7.607 3.15C1.715 8.071.85 12.95 2.74 17.036c.272.674.535 1.33.535 2.011 0 .68-.234 1.366-.44 1.97-.17.498-.427 1.25-.262 1.415.162.168.918-.096 1.417-.267.599-.205 1.278-.44 1.952-.445.674 0 1.31.256 1.984.527 4.126 1.908 9.005 1.04 12.184-2.138 4.194-4.196 4.194-11.023 0-15.217a10.684 10.684 0 00-7.607-3.148zm4.591 10.075a1.163 1.163 0 110 2.327c-.642 0-1.167-.52-1.167-1.164 0-.643.515-1.163 1.157-1.163h.01zm-4.662 0a1.163 1.163 0 110 2.327c-.642 0-1.168-.52-1.168-1.164 0-.643.514-1.163 1.157-1.163h.01zm-4.663 0a1.163 1.163 0 110 2.327c-.642 0-1.168-.52-1.168-1.164 0-.643.515-1.163 1.157-1.163h.01z" fill="#fff"/></svg>