<svg width="26" height="25" fill="none" xmlns="http://www.w3.org/2000/svg"><path fill-rule="evenodd" clip-rule="evenodd" d="M15.154 1.094l.913.914c.354.351.826.546 1.329.546h1.285a3.769 3.769 0 013.765 3.765v1.283c0 .502.195.975.548 1.332l.898.898a3.739 3.739 0 011.11 2.656 3.739 3.739 0 01-1.094 2.666l-.916.914a1.872 1.872 0 00-.546 1.327v1.287a3.768 3.768 0 01-3.764 3.763h-1.289a1.9 1.9 0 00-1.33.549l-.897.897A3.75 3.75 0 0112.498 25a3.753 3.753 0 01-2.652-1.09l-.03-.031-.887-.886a1.881 1.881 0 00-1.329-.548H6.318a3.767 3.767 0 01-3.764-3.763v-1.289c0-.502-.196-.974-.548-1.329l-.899-.897a3.769 3.769 0 01-.044-5.292l.034-.034.91-.912A1.88 1.88 0 002.554 7.6V6.319a3.769 3.769 0 013.763-3.765h1.287c.501 0 .974-.196 1.333-.55l.893-.896a3.768 3.768 0 015.324-.014zm-3.995 1.338l-.899.9A3.755 3.755 0 017.604 4.43H6.318a1.893 1.893 0 00-1.889 1.89V7.6a3.74 3.74 0 01-1.093 2.652l-.888.889-.026.026a1.891 1.891 0 00.009 2.671l.902.903a3.732 3.732 0 011.096 2.652v1.289a1.89 1.89 0 001.889 1.888h1.284a3.738 3.738 0 012.652 1.096l.901.9.025.027a1.89 1.89 0 002.657-.025l.903-.9a3.782 3.782 0 012.653-1.098h1.288c1.042 0 1.89-.847 1.89-1.888v-1.287c0-1 .387-1.942 1.095-2.65l.9-.902a1.887 1.887 0 00.002-2.683l-.901-.903a3.74 3.74 0 01-1.096-2.655V6.32c0-1.043-.848-1.89-1.89-1.89h-1.285a3.74 3.74 0 01-2.651-1.093l-.903-.903a1.897 1.897 0 00-2.683-.001zm4.47 11.94a1.249 1.249 0 110 2.5 1.254 1.254 0 01-1.257-1.25c0-.69.554-1.25 1.245-1.25h.011zm.746-5.747a.938.938 0 010 1.326L9.95 16.376a.93.93 0 01-.662.275.936.936 0 01-.662-1.6l6.424-6.426a.938.938 0 011.326 0zM9.38 8.123a1.249 1.249 0 110 2.5 1.254 1.254 0 01-1.257-1.25c0-.691.554-1.25 1.245-1.25h.011z" fill="#fff"/></svg>