<svg width="48" height="42" fill="none" xmlns="http://www.w3.org/2000/svg"><path d="M.01 30.308c0 6.31 5.116 11.426 11.426 11.426 6.311 0 11.427-5.116 11.427-11.426 0-6.311-5.116-11.427-11.427-11.427-1.297 0-2.538.227-3.7.625 2.571-14.748 14.071-24.258 3.41-16.43C-.673 11.754-.001 29.957.012 30.291v.016zm25.137 0c0 6.31 5.116 11.426 11.427 11.426 6.31 0 11.426-5.116 11.426-11.426 0-6.311-5.116-11.427-11.426-11.427-1.297 0-2.539.227-3.701.625 2.571-14.748 14.072-24.258 3.41-16.43-11.82 8.679-11.148 26.882-11.135 27.216v.016z" fill="#000" fill-opacity=".06"/></svg>