<svg width="22" height="25" fill="none" xmlns="http://www.w3.org/2000/svg"><path fill-rule="evenodd" clip-rule="evenodd" d="M13.81 0a.95.95 0 01.16.013l.171.001c.257 0 .503.105.681.29l6.374 6.64a.946.946 0 01.264.654v11.535a5.81 5.81 0 01-5.6 5.866L5.77 25h-.137A5.771 5.771 0 010 19.384V5.65C.073 2.529 2.652.014 5.751.014h7.901A.948.948 0 0113.811 0zm-.943 1.902H5.754c-2.086 0-3.817 1.689-3.866 3.772v13.459a3.885 3.885 0 003.786 3.98h10.149c2.1-.087 3.764-1.833 3.749-3.972V8.788l-2.53.001a4.193 4.193 0 01-4.175-4.184V1.902zm.708 13.965a.944.944 0 010 1.888H6.78a.944.944 0 010-1.888h6.795zm-2.573-4.722a.944.944 0 010 1.888H6.779a.944.944 0 010-1.888h4.223zm3.752-8.185v1.645a2.3 2.3 0 002.29 2.296h1.493L14.754 2.96z" fill="#fff"/></svg>