<svg width="20" height="25" fill="none" xmlns="http://www.w3.org/2000/svg"><path fill-rule="evenodd" clip-rule="evenodd" d="M19.93 20.374C19.93 24.52 14.241 25 9.965 25H9.66C6.935 24.993 0 24.82 0 20.349c0-4.063 5.458-4.606 9.702-4.626h.57c2.724.006 9.657.178 9.657 4.65zM9.965 17.61c-5.361 0-8.079.92-8.079 2.739 0 1.834 2.718 2.764 8.079 2.764 5.36 0 8.076-.921 8.076-2.74 0-1.834-2.716-2.763-8.076-2.763zm0-17.61a6.687 6.687 0 016.68 6.68 6.686 6.686 0 01-6.68 6.68h-.04a6.668 6.668 0 01-6.642-6.683C3.284 2.997 6.28 0 9.966 0zm0 1.797A4.89 4.89 0 005.08 6.68a4.873 4.873 0 004.85 4.884l.036.898v-.898a4.89 4.89 0 004.883-4.884 4.889 4.889 0 00-4.883-4.884z" fill="#fff"/></svg>