<svg width="48" height="42" viewBox="0 0 48 42" fill="none" xmlns="http://www.w3.org/2000/svg">
<path d="M0.0102054 30.3076C0.0102054 36.6183 5.12573 41.7338 11.4363 41.7338C17.747 41.7338 22.8626 36.6183 22.8626 30.3076C22.8626 23.9969 17.747 18.8815 11.4363 18.8815C10.1394 18.8815 8.89794 19.1075 7.73574 19.506C10.3071 4.75849 21.8073 -4.75196 11.1467 3.07533C-0.674397 11.7549 -0.00245487 29.9584 0.0107723 30.292C0.0107723 30.2972 0.0102054 30.3018 0.0102054 30.3076Z" fill="black" fill-opacity="0.06"/>
<path d="M25.1474 30.3076C25.1474 36.6183 30.263 41.7338 36.5737 41.7338C42.8843 41.7338 47.9999 36.6183 47.9999 30.3076C47.9999 23.9969 42.8843 18.8815 36.5736 18.8815C35.2765 18.8815 34.0352 19.1075 32.873 19.506C35.4443 4.75849 46.9445 -4.75196 36.2839 3.07533C24.4628 11.7549 25.1347 29.9584 25.148 30.292C25.148 30.2972 25.1474 30.3018 25.1474 30.3076Z" fill="black" fill-opacity="0.06"/>
</svg>
