<svg width="22" height="25" viewBox="0 0 22 25" fill="none" xmlns="http://www.w3.org/2000/svg">
<path fill-rule="evenodd" clip-rule="evenodd" d="M13.8106 0C13.8646 0 13.9176 0.00455079 13.9692 0.0132899L14.1414 0.0143466C14.3982 0.0143466 14.6436 0.1188 14.8223 0.303795L21.1964 6.94474C21.365 7.11967 21.4596 7.355 21.4596 7.59788V19.133C21.4821 22.2905 19.023 24.8704 15.8605 24.9987L5.76882 25H5.63165C2.54847 24.9303 0.0757126 22.4368 0.000379845 19.3837L0 5.65103C0.0729912 2.52877 2.6516 0.0143466 5.75121 0.0143466L13.652 0.0132899C13.7035 0.00455079 13.7565 0 13.8106 0ZM12.8666 1.90155L5.75372 1.90205C3.66844 1.90205 1.93678 3.59092 1.8877 5.67368V19.133C1.84114 21.2888 3.54007 23.0645 5.67444 23.1123H15.8227C17.9231 23.0255 19.5868 21.28 19.5718 19.1406L19.5717 8.78789L17.0423 8.78915C14.7393 8.78286 12.8667 6.90522 12.8667 4.60474L12.8666 1.90155ZM13.5755 15.8669C14.0965 15.8669 14.5193 16.2898 14.5193 16.8108C14.5193 17.3318 14.0965 17.7546 13.5755 17.7546H6.77975C6.25875 17.7546 5.8359 17.3318 5.8359 16.8108C5.8359 16.2898 6.25875 15.8669 6.77975 15.8669H13.5755ZM11.002 11.1451C11.5231 11.1451 11.9459 11.568 11.9459 12.089C11.9459 12.61 11.5231 13.0328 11.002 13.0328H6.77862C6.25761 13.0328 5.83477 12.61 5.83477 12.089C5.83477 11.568 6.25761 11.1451 6.77862 11.1451H11.002ZM14.7543 2.95992L14.7544 4.60474C14.7544 5.86824 15.7826 6.89767 17.0448 6.90145L18.5373 6.90019L14.7543 2.95992Z" fill="white"/>
</svg>
