<svg width="20" height="25" viewBox="0 0 20 25" fill="none" xmlns="http://www.w3.org/2000/svg">
<path fill-rule="evenodd" clip-rule="evenodd" d="M19.9291 20.3738C19.9291 24.5206 14.2423 25 9.96583 25L9.6598 24.9997C6.9352 24.9931 0 24.8211 0 20.3486C0 16.2864 5.45831 15.7435 9.70223 15.723L10.2718 15.7226C12.9963 15.7293 19.9291 15.9013 19.9291 20.3738ZM9.96583 17.6096C4.60484 17.6096 1.88723 18.5306 1.88723 20.3486C1.88723 22.183 4.60484 23.1128 9.96583 23.1128C15.3256 23.1128 18.0419 22.1918 18.0419 20.3738C18.0419 18.5394 15.3256 17.6096 9.96583 17.6096ZM9.96583 0C13.6497 0 16.6454 2.99692 16.6454 6.68079C16.6454 10.3647 13.6497 13.3603 9.96583 13.3603H9.92557C6.24925 13.349 3.2712 10.3508 3.28374 6.67702C3.28374 2.99692 6.2807 0 9.96583 0ZM9.96583 1.79664C7.27212 1.79664 5.08039 3.98709 5.08039 6.68079C5.07161 9.36569 7.24696 11.5549 9.92934 11.5649L9.96583 12.4633V11.5649C12.6583 11.5649 14.8487 9.37324 14.8487 6.68079C14.8487 3.98709 12.6583 1.79664 9.96583 1.79664Z" fill="white"/>
</svg>
